<?xml version="1.0" encoding="UTF-8"?>
<svg width="35px" height="35px" viewBox="0 0 35 35" version="1.1" xmlns="http://www.w3.org/2000/svg" xmlns:xlink="http://www.w3.org/1999/xlink">
    <!-- Generator: Sketch 51.3 (57544) - http://www.bohemiancoding.com/sketch -->
    <title>Fill 1</title>
    <desc>Created with Sketch.</desc>
    <defs></defs>
    <g id="Nextcloud-Final" stroke="none" stroke-width="1" fill="none" fill-rule="evenodd">
        <g id="logo-plattform-n-copy" transform="translate(-8.000000, -8.000000)" fill="#FFFFFF">
            <path d="M32.5254757,23 C32.2379423,23.0142783 32.0263424,23.1791871 32.020822,23.4365331 C31.9985377,24.4696128 31.9793402,25.506796 32.0458328,26.5360841 C32.073998,26.9721613 32.4776399,27.1283591 32.8343472,26.8856273 C33.4935267,26.4370476 34.137114,25.9582794 34.757403,25.4506905 C35.1084997,25.163372 35.0674911,24.7131364 34.7055789,24.441896 C34.1425217,24.0198812 33.571398,23.609673 32.995182,23.2082957 C32.8556401,23.1111071 32.6829082,23.0679841 32.5254757,23 M28.9971236,25.206603 L28.9961216,25.206603 C28.9961216,23.7777712 29.006387,22.3488674 28.9935163,20.9201796 C28.9781293,19.2138739 27.9424369,18.0440881 26.4021588,18.0205013 C24.8207522,17.9962908 23.2382991,17.9885885 21.6573156,18.0249883 C20.7273724,18.0464155 19.9108609,18.3944335 19.4051395,19.3172188 C19.1077768,19.8598332 19.0038312,20.4595308 19.0028737,21.0791439 C18.9985983,23.8245127 19.002317,26.5698815 19.0000012,29.3152263 C18.999489,29.928289 19.1630675,30.4531714 19.6972693,30.7484012 C20.2802818,31.070649 20.8866977,31.0990826 21.4647446,30.7418747 C21.9603565,30.4356073 22.0575104,29.8935927 22.0590246,29.3362456 C22.0655491,26.9481088 22.0613182,24.5599239 22.0623425,22.1717631 C22.0626097,21.5720895 22.332071,21.2652942 22.890411,21.2570881 C23.6290079,21.2462425 24.3679611,21.2467224 25.1065802,21.2569681 C25.6435432,21.2644064 25.865129,21.4745273 25.9544001,22.0349458 C25.9798076,22.19463 25.9870668,22.3593771 25.9872004,22.5217967 C25.9892491,24.8079084 25.9877571,27.0940201 25.9903847,29.3801318 C25.9905851,29.5419755 25.9940366,29.7104178 26.0337399,29.8644873 C26.2347058,30.6436407 26.9129795,31.0944037 27.6821945,30.9739507 C28.5372291,30.8400846 28.9951195,30.3062283 28.9965447,29.4317922 C28.998816,28.0234038 28.9971236,26.6149914 28.9971236,25.206603 M39.7768313,27.5419151 C39.7610844,27.6679 40.0182274,25.7711611 39.9341811,24.9569393 C39.8218426,23.8684037 39.7063262,22.7697741 39.4539974,21.7082505 C38.9190081,19.4573703 37.9884743,17.3803619 36.425909,15.6302696 C35.552173,14.6517012 34.6540104,13.6980597 33.5092342,13.0230444 C32.1677175,12.2319724 30.4920785,11.4112346 29.0199389,10.9204221 C28.6416591,10.8889318 27.4950095,10.7001085 26.5909893,10.5483912 C25.9663805,10.4435894 25.3160883,10.2608083 24.6856457,10.2432979 C23.2313636,10.202851 21.2353096,10.6576713 19.8627498,11.0778972 C17.7078758,11.7376531 16.2961386,12.5196026 14.5829823,13.9883438 C12.9271217,15.4079894 11.4930923,17.0196571 10.4033353,18.9225804 C9.99477122,19.6360522 9.61374044,20.2903109 9.30285898,21.035581 C8.67578386,22.538798 8.27732248,24.1849178 8.11674742,25.8421504 C8.11418619,25.8684516 8.09402834,25.8930467 8.02772087,25.9229968 C8.01804511,25.8121529 7.99712837,25.701001 8.00032991,25.5905362 C8.0624398,23.4491729 8.52846556,21.4084175 9.66928125,19.5769812 C10.4881879,18.2622558 10.4720617,18.0776502 11.383315,16.8257395 C12.7702936,14.9203046 14.3659889,13.5217947 15.6154436,12.6418437 C17.833803,11.0795084 20.3246254,10.2456911 23.0009712,9.92768423 C23.6799587,9.84700369 24.3630015,9.7782653 25.0458546,9.75630029 C26.8162829,9.6992434 28.3060902,9.91187985 29.9813261,10.5110009 C31.7872559,11.1568243 33.7346701,12.0113271 35.2683504,13.1779368 C36.355238,14.0046931 37.2022708,15.0489907 38.006901,16.1370287 C38.5396136,16.9044771 39.024398,17.8990631 39.4131837,18.8377769 C39.8367357,19.8604175 40.2812044,20.8840296 40.5820781,21.9452688 C40.7909134,22.6818667 40.8946433,23.43434 40.9825552,24.1955804 C41.04476,24.7339008 41.1332411,25.2762731 41.0945617,25.8219388 C41.025029,26.8025213 40.802012,27.7613283 40.6279431,28.7308453 C40.3976456,30.0135828 40.0239428,31.2648538 39.5089216,32.4630012 C39.0152203,33.6115555 38.3404778,34.6332246 37.5442428,35.5856103 C36.7018344,36.5931099 35.7461863,37.4849793 34.6659391,38.2433763 C32.8238911,39.5365633 30.7923119,40.3410702 28.5656522,40.6541723 C27.1589189,40.8519758 25.7388103,40.88984 24.3561478,40.5771644 C23.2706595,40.3316634 22.2209099,39.9188065 21.1669389,39.5471785 C20.4266004,39.2861574 19.6886097,39.0046404 19.0509814,38.524846 C17.6323905,37.4574224 16.2242343,36.3456896 15.1817178,34.8723754 C14.9340846,34.522428 14.5660971,34.2942242 14.3077921,33.9501294 C13.6412313,33.0622407 13.2672913,32.0240801 12.854838,31.0060126 C12.5413953,30.2323325 12.4326852,29.4299107 12.3316114,28.604505 C12.1373846,27.018167 12.1398509,25.4711148 12.1713209,23.8456094 C12.1706095,23.8062524 12.1804275,23.6277838 12.1713683,23.5341896 C12.1719375,23.3634928 11.9822403,23.7703786 12.0137577,23.8491162 C11.570119,25.1788877 11.3849276,26.4980678 11.4452115,27.9104866 C11.5287124,29.8671494 11.8983125,31.7517093 12.7868468,33.5045975 C13.245758,34.4099018 13.5740938,35.3605578 14.3936408,36.3998795 C14.485442,36.5537767 14.5759863,36.4044051 14.7157395,36.5292763 C14.7893512,36.5949818 14.890591,36.6436745 14.9363849,36.7243787 C15.0188661,37.2030121 16.2268193,38.1805379 16.9849679,38.7915064 C18.0731597,39.6684955 19.3594676,40.1913906 20.6223213,40.7483825 C22.3549714,41.5126321 24.1863713,41.8992589 26.0608378,42.0896934 C26.660688,42.1506362 27.6332924,42.1773876 28.2371267,42.1792121 C28.2896319,42.1897088 28.2265972,42.0112402 28.1635624,41.8642618 C28.3317026,41.8642618 28.5501425,41.8373683 28.6889471,41.8222984 C29.6650613,41.7160987 30.5816031,41.5510886 31.4890146,41.1751482 C31.678451,41.0966712 31.9838068,41.0786632 32.1721523,40.9981486 C32.2108316,40.9816097 32.0967382,40.8835609 32.1353701,40.8669272 C33.7666381,40.164118 35.3804992,39.383519 36.7549088,38.2112463 C37.8428872,37.2832661 38.8016894,36.2467168 39.655481,35.1062186 C40.5727817,33.9669053 40.4965613,33.5042184 40.7303924,32.6440999 C41.1133441,31.2353775 41.6332269,29.9561705 42.0309768,28.5510497 C42.2279546,27.8552778 42.3346252,27.1358113 42.3559925,26.4130748 C42.4384262,23.6236609 42.0742806,20.9080086 40.911647,18.3375102 C40.7580916,17.9979886 40.5570349,17.5422442 40.4151473,17.203694 C40.3934243,17.1517552 40.3265951,17.260277 40.2973544,17.2122241 C39.7762858,16.3552808 39.1509893,15.5706063 38.4981122,14.8059302 C37.2673213,13.3643906 35.8558687,12.1214839 34.2455412,11.1141027 C31.2737525,9.21970958 29.0683415,8.59836285 26.2932697,8.27485879 C25.4001347,8.13837718 23.1303135,8.19022124 21.4230859,8.4953145 C21.3863275,8.50187794 21.200899,8.5388654 21.1709231,8.51630802 C21.1510972,8.50138035 21.2722341,8.46237883 21.2962338,8.45605234 C21.8644242,8.30634908 22.3656907,8.22732718 22.9020555,8.12122221 C23.1576333,8.07065767 23.4171241,8.03978344 23.6748362,8 L25.9746808,8 C26.032024,8.01758148 26.0883948,8.04577821 26.1469,8.0511806 C27.9808137,8.22059788 29.7471867,8.68949276 31.4295608,9.40905412 C33.189175,10.1616696 34.9068609,11.0139451 36.6272978,11.8544917 C36.9304007,12.0025838 37.2064209,12.2709028 37.4085211,12.5468753 C37.5815229,12.7829932 37.6820276,13.1008816 37.861883,13.3297963 C38.05943,13.581221 38.3378929,13.7423451 38.5650125,13.9697197 C38.7100067,14.1149447 38.8575622,14.2588427 38.9902483,14.4153938 C41.0324993,16.8248154 42.2130378,19.6244418 42.797402,22.6885012 C42.9084361,23.270728 42.8881123,23.8752041 42.9684591,24.4632834 C42.9669888,25.2210881 43.0014468,25.9573542 42.9999528,26.7151825 C42.9487755,27.1226607 42.8869502,27.6003226 42.826619,28.0064739 C42.5886141,29.6090665 42.1231575,31.0923325 41.5026989,32.588986 C40.6033268,34.7583564 39.3310582,36.662109 37.625467,38.2738477 C35.688274,40.1044073 33.5078113,41.4434435 30.9270138,42.1949691 C30.4838731,42.3240105 30.0561473,42.4989961 29.6135995,42.6306439 C29.6135995,42.6685318 29.6213069,42.7508473 29.5505173,42.746132 C29.3929303,42.7356353 29.2347505,42.6769671 29.0199389,42.7146417 C28.1215629,42.8721169 27.0978525,43.0285968 26.1802435,42.9955427 C24.5185489,42.9356661 22.8835102,42.620313 21.2812458,42.1004745 C21.1624094,42.0619232 20.7190553,41.8436 20.6035389,41.8012812 C20.5731836,41.7901684 20.592796,41.8350225 20.6823443,41.9115091 C20.7814734,41.9961703 20.9538823,42.1058769 20.9187603,42.1004745 C20.7138616,42.0690079 19.7418976,41.5307349 19.2650103,41.2545729 C18.4127364,40.7304456 17.3935082,40.1110418 19.1135656,41.2892383 C19.2760378,41.4148677 19.6582781,41.6861486 19.8207266,41.811778 C19.8122366,41.8277482 19.7398581,41.8538598 19.4214589,41.6438061 C19.2133588,41.5065426 19.1348617,41.4803599 18.918983,41.3558204 C17.6036715,40.4784996 16.2957117,39.6798926 15.2260177,38.5465266 C14.5033706,37.7809264 13.8665723,36.9279875 13.2468726,36.0738875 C12.7572977,35.3991091 12.2764737,34.6983614 11.9258695,33.9467173 C11.2443919,32.4857718 10.6839799,30.9785504 10.5273653,29.3450599 C10.3498814,27.4941703 10.4661329,25.6620942 10.8625311,23.8573856 C11.029106,23.0989886 11.3412918,22.3588602 11.6795168,21.6546294 C12.0132834,20.9597342 12.2261503,20.181173 12.6914883,19.5657973 C13.2273551,18.8571592 13.3885941,18.2944806 13.7467873,17.6612391 C14.0482775,17.1283448 14.4926751,16.6570331 14.941128,16.2301489 C15.9313764,15.2874544 17.0623503,14.5359762 18.2871175,13.9195817 C20.0771819,13.018732 22.0422639,12.4985143 24.0438672,12.3943286 C25.7265021,12.3067766 27.3710506,12.4710521 28.964825,13.0395833 C29.6574724,13.2866719 30.3384046,13.5675018 31.0192419,13.8462228 C32.1034021,14.290025 32.943439,15.0910488 33.8239338,15.821178 C35.1067556,16.8849052 35.997282,18.2503848 36.7743789,19.7075392 C37.4064342,20.8927492 37.8265949,22.1536165 37.9568858,23.4935532 C38.1039907,25.006793 37.9727749,26.5209332 37.6412376,28.0064739 C37.212326,29.9282818 36.3680678,31.6243738 35.0721553,33.1086587 C33.468468,34.9454973 31.4814495,35.9513146 29.08295,36.3054086 C28.4171481,36.4036943 27.6735606,36.4143095 27.002494,36.478617 C26.4449042,36.5320723 25.6917595,36.2596541 25.1584539,36.1636668 C24.3180851,36.0124233 23.9763977,36.1479335 22.9282844,35.8959638 C22.6328177,35.8525313 22.1990208,35.8097861 21.927459,35.6833984 C21.751564,35.6015094 22.0929431,36.0377293 23.0267733,36.4268204 C23.8645335,36.9264473 24.8154622,37.0356563 25.7481303,37.1830612 C26.9986521,37.3806515 28.4525074,37.3683539 29.5010475,37.1320464 C30.8875992,36.7505614 32.4952233,36.1715571 33.4484287,35.4466407 C34.2501419,34.7852736 34.9676665,34.0060015 35.6444722,33.2126548 C37.1985949,31.3909097 38.0070433,29.2115638 38.4043189,26.8896942 C38.8309538,24.3961326 38.3707383,22.0106663 37.3502768,19.7045299 C36.7428615,18.006803 35.8874099,17.4042699 34.9914765,16.3678864 C34.0466188,15.2748962 32.9616996,14.3554224 31.719573,13.6205306 C30.4340002,12.8599536 29.0416146,12.3982146 27.5856724,12.1329758 C24.8032489,11.626122 21.90557,11.8783523 19.2795951,12.9518655 C18.6053743,13.2274825 18.1957194,13.5888033 17.5458778,13.9282066 C16.1247969,14.6703727 14.7684582,15.6624471 13.700187,16.8572298 C12.4408906,18.2656678 11.357347,19.8703693 10.7508091,21.6813333 C10.5070415,22.4091404 10.425248,23.195284 10.3096843,23.9609079 C10.0874499,25.4337719 9.87780827,26.8357887 9.67060929,28.3109274 C9.64153456,28.3564212 9.65429329,28.4723121 9.60207261,28.506006 C9.60207261,27.8510602 9.79670257,26.9776253 9.57603341,26.2847442 C9.46744189,26.4872867 9.41581408,26.7194476 9.35538796,27.0616231 C9.26081208,27.5970291 9.27131787,27.8699923 9.29235318,28.2899339 C9.18952444,27.8768874 9.1720464,27.7565419 9.19251254,27.3608164 C9.23980048,26.4474559 9.39949808,25.5668178 9.53403394,24.7850814 C9.61530564,24.3129878 9.74941462,23.7126583 9.72840303,23.2087189 C9.72657697,23.164931 9.7732246,23.2160642 9.77569097,23.1719921 C9.75802321,23.1491503 9.81690785,23.3281403 9.85449631,23.3767145 C9.95431323,22.9935234 10.1713303,22.4080979 10.2957872,22.0329156 C10.2094642,22.0347638 10.201235,22.0906597 10.0856475,22.3111154 C9.94136478,22.5863296 10.0712525,22.282966 10.0593712,22.2691283 C10.0705884,22.217071 10.2409104,21.8448032 10.253764,21.8124599 C10.8370136,20.3446666 11.4245319,19.3357216 12.3685121,18.0697125 C12.9986939,17.2245928 13.6387412,16.3787859 14.3535622,15.6064564 C15.7330468,14.1159162 17.4452071,13.098133 19.3261953,12.3628146 C20.7909832,11.7901843 22.3123791,11.4893087 23.8855213,11.3685604 C25.933796,11.2113222 27.9042613,11.5221259 29.8365216,12.1588268 C31.4478689,12.6898018 32.8418671,13.6095362 34.167139,14.6412756 C35.4877864,15.669437 36.4856237,16.8947859 37.3259925,18.3375102 C38.0972793,19.6616425 38.593945,21.1408804 38.8530563,22.6364202 C38.9319328,23.0917617 38.9318854,23.6404841 39.043963,24.0853289 C39.1350054,24.4467445 39.3353744,24.7049933 39.4281953,25.0668828 C39.564083,25.801822 39.6744057,26.4868365 39.6665323,27.2663455 L39.6428883,27.4946679 C39.6586351,29.0064386 38.2607476,31.2361832 37.7909511,31.9118382 C37.5558157,32.2500567 37.1755201,32.5283275 36.987151,32.888203 C36.426739,33.8187895 35.6818947,34.7050196 34.8278896,35.3999147 C33.2164474,36.5732774 31.2928906,37.6204421 29.1845219,37.9912882 C27.3807738,38.2187338 25.2022083,38.1442613 23.3162163,37.4528967 C22.6000909,37.1903828 20.5719978,36.1951807 19.8154619,35.6203941 C18.8168183,34.8616417 18.6200777,33.852128 18.1211591,33.6047077 C18.1130248,33.5960117 19.3065592,35.5332923 19.7209097,35.8014929 C20.2804205,36.1636668 21.3307867,36.9679605 22.1796456,37.4156012 C23.9607457,38.35486 25.9017331,38.7595422 27.9350198,38.5436596 C29.3368441,38.3948093 30.7140283,38.1120839 32.0206127,37.6117461 C33.6675564,36.9810636 35.0708984,35.9550584 36.2661165,34.6438872 C37.216239,33.6016037 38.0419993,32.4821228 38.6322212,31.1973712 C38.7330816,30.9778396 38.8306455,30.7564124 38.9192927,30.5317627 C39.6744057,28.6914883 39.7768313,27.5419151 39.7768313,27.5419151" id="Fill-1"></path>
        </g>
    </g>
</svg>