<?xml version="1.0" encoding="utf-8"?>
<!-- Generator: Adobe Illustrator 15.0.0, SVG Export Plug-In . SVG Version: 6.00 Build 0)  -->
<!DOCTYPE svg PUBLIC "-//W3C//DTD SVG 1.1//EN" "http://www.w3.org/Graphics/SVG/1.1/DTD/svg11.dtd">
<svg version="1.1" id="Ebene_1" xmlns="http://www.w3.org/2000/svg" xmlns:xlink="http://www.w3.org/1999/xlink" x="0px" y="0px"
	 width="22px" height="20px" viewBox="0 0 22 20" enable-background="new 0 0 22 20" xml:space="preserve">
<title>exit_icon</title>
<desc>Created with Sketch.</desc>
<g id="Nextcloud-Final">
	<g id="exit_icon">
		<path id="Fill-1" fill="#1D1D1B" d="M7.499,2c0.897,0,1.34,1.091,0.697,1.717L3.413,8.5h11.572c1.353-0.019,1.353,2.02,0,2H3.413
			l4.783,4.783c0.983,0.943-0.47,2.396-1.414,1.414l-6.49-6.49c-0.387-0.388-0.392-1.022,0-1.414l6.49-6.49
			C6.971,2.109,7.229,2,7.499,2z"/>
		<path id="Fill-4" fill="#1D1D1B" d="M22,1c0-0.554-0.445-1-1-1h-8c-0.555,0-1,0.446-1,1s0.445,1,1,1h7v8c0,0.001,0,2.668,0.001,8
			h-7c-0.556,0-1,0.445-1,1s0.444,1,1,1h8c0.554,0,1-0.445,1-1v-9C22.001,9.999,22,6.999,22,1z"/>
	</g>
</g>
</svg>
