<?xml version="1.0" encoding="UTF-8"?>
<svg width="101px" height="35px" viewBox="0 0 101 35" version="1.1" xmlns="http://www.w3.org/2000/svg" xmlns:xlink="http://www.w3.org/1999/xlink">
    <!-- Generator: Sketch 51.3 (57544) - http://www.bohemiancoding.com/sketch -->
    <title>Group</title>
    <desc>Created with Sketch.</desc>
    <defs></defs>
    <g id="Nextcloud-Final" stroke="none" stroke-width="1" fill="none" fill-rule="evenodd">
        <g id="Artboard" transform="translate(-10.000000, -8.000000)" fill="#FFFFFF">
            <g id="Group" transform="translate(10.000000, 8.000000)">
                <text id="CLOUD" font-family="BrandonText-Bold, Brandon Text" font-size="15" font-weight="bold" letter-spacing="1">
                    <tspan x="45.275" y="23">CLOUD</tspan>
                </text>
                <path d="M24.5254757,15 C24.2379423,15.0142783 24.0263424,15.1791871 24.020822,15.4365331 C23.9985377,16.4696128 23.9793402,17.506796 24.0458328,18.5360841 C24.073998,18.9721613 24.4776399,19.1283591 24.8343472,18.8856273 C25.4935267,18.4370476 26.137114,17.9582794 26.757403,17.4506905 C27.1084997,17.163372 27.0674911,16.7131364 26.7055789,16.441896 C26.1425217,16.0198812 25.571398,15.609673 24.995182,15.2082957 C24.8556401,15.1111071 24.6829082,15.0679841 24.5254757,15 M20.9971236,17.206603 L20.9961216,17.206603 C20.9961216,15.7777712 21.006387,14.3488674 20.9935163,12.9201796 C20.9781293,11.2138739 19.9424369,10.0440881 18.4021588,10.0205013 C16.8207522,9.99629076 15.2382991,9.98858849 13.6573156,10.0249883 C12.7273724,10.0464155 11.9108609,10.3944335 11.4051395,11.3172188 C11.1077768,11.8598332 11.0038312,12.4595308 11.0028737,13.0791439 C10.9985983,15.8245127 11.002317,18.5698815 11.0000012,21.3152263 C10.999489,21.928289 11.1630675,22.4531714 11.6972693,22.7484012 C12.2802818,23.070649 12.8866977,23.0990826 13.4647446,22.7418747 C13.9603565,22.4356073 14.0575104,21.8935927 14.0590246,21.3362456 C14.0655491,18.9481088 14.0613182,16.5599239 14.0623425,14.1717631 C14.0626097,13.5720895 14.332071,13.2652942 14.890411,13.2570881 C15.6290079,13.2462425 16.3679611,13.2467224 17.1065802,13.2569681 C17.6435432,13.2644064 17.865129,13.4745273 17.9544001,14.0349458 C17.9798076,14.19463 17.9870668,14.3593771 17.9872004,14.5217967 C17.9892491,16.8079084 17.9877571,19.0940201 17.9903847,21.3801318 C17.9905851,21.5419755 17.9940366,21.7104178 18.0337399,21.8644873 C18.2347058,22.6436407 18.9129795,23.0944037 19.6821945,22.9739507 C20.5372291,22.8400846 20.9951195,22.3062283 20.9965447,21.4317922 C20.998816,20.0234038 20.9971236,18.6149914 20.9971236,17.206603 M31.7768313,19.5419151 C31.7610844,19.6679 32.0182274,17.7711611 31.9341811,16.9569393 C31.8218426,15.8684037 31.7063262,14.7697741 31.4539974,13.7082505 C30.9190081,11.4573703 29.9884743,9.3803619 28.425909,7.63026962 C27.552173,6.65170124 26.6540104,5.6980597 25.5092342,5.02304442 C24.1677175,4.23197239 22.4920785,3.41123456 21.0199389,2.92042205 C20.6416591,2.88893177 19.4950095,2.70010852 18.5909893,2.5483912 C17.9663805,2.44358944 17.3160883,2.26080834 16.6856457,2.24329794 C15.2313636,2.20285105 13.2353096,2.65767127 11.8627498,3.07789719 C9.70787575,3.73765307 8.29613857,4.51960263 6.58298226,5.98834376 C4.92712168,7.40798942 3.49309229,9.01965712 2.40333525,10.9225804 C1.99477122,11.6360522 1.61374044,12.2903109 1.30285898,13.035581 C0.675783865,14.538798 0.277322475,16.1849178 0.116747421,17.8421504 C0.114186188,17.8684516 0.094028339,17.8930467 0.027720873,17.9229968 C0.0180451054,17.8121529 -0.00287162748,17.701001 0.00032991326,17.5905362 C0.0624398037,15.4491729 0.52846556,13.4084175 1.66928125,11.5769812 C2.48818794,10.2622558 2.47206166,10.0776502 3.38331501,8.8257395 C4.77029361,6.92030462 6.36598895,5.52179466 7.61544358,4.64184371 C9.83380302,3.07950843 12.3246254,2.24569111 15.0009712,1.92768423 C15.6799587,1.84700369 16.3630015,1.7782653 17.0458546,1.75630029 C18.8162829,1.6992434 20.3060902,1.91187985 21.9813261,2.51100093 C23.7872559,3.15682431 25.7346701,4.01132712 27.2683504,5.17793683 C28.355238,6.00469312 29.2022708,7.04899067 30.006901,8.13702867 C30.5396136,8.90447707 31.024398,9.89906309 31.4131837,10.8377769 C31.8367357,11.8604175 32.2812044,12.8840296 32.5820781,13.9452688 C32.7909134,14.6818667 32.8946433,15.43434 32.9825552,16.1955804 C33.04476,16.7339008 33.1332411,17.2762731 33.0945617,17.8219388 C33.025029,18.8025213 32.802012,19.7613283 32.6279431,20.7308453 C32.3976456,22.0135828 32.0239428,23.2648538 31.5089216,24.4630012 C31.0152203,25.6115555 30.3404778,26.6332246 29.5442428,27.5856103 C28.7018344,28.5931099 27.7461863,29.4849793 26.6659391,30.2433763 C24.8238911,31.5365633 22.7923119,32.3410702 20.5656522,32.6541723 C19.1589189,32.8519758 17.7388103,32.88984 16.3561478,32.5771644 C15.2706595,32.3316634 14.2209099,31.9188065 13.1669389,31.5471785 C12.4266004,31.2861574 11.6886097,31.0046404 11.0509814,30.524846 C9.63239054,29.4574224 8.22423434,28.3456896 7.18171781,26.8723754 C6.93408457,26.522428 6.5660971,26.2942242 6.30779205,25.9501294 C5.64123127,25.0622407 5.26729131,24.0240801 4.854838,23.0060126 C4.5413953,22.2323325 4.43268521,21.4299107 4.33161138,20.604505 C4.13738458,19.018167 4.13985095,17.4711148 4.17132091,15.8456094 C4.17060946,15.8062524 4.18042751,15.6277838 4.17136834,15.5341896 C4.1719375,15.3634928 3.98224028,15.7703786 4.01375767,15.8491162 C3.57011899,17.1788877 3.38492764,18.4980678 3.44521147,19.9104866 C3.52871239,21.8671494 3.89831249,23.7517093 4.78684676,25.5045975 C5.24575798,26.4099018 5.57409377,27.3605578 6.39364077,28.3998795 C6.48544199,28.5537767 6.5759863,28.4044051 6.71573949,28.5292763 C6.78935121,28.5949818 6.89059104,28.6436745 6.93638493,28.7243787 C7.01886611,29.2030121 8.22681929,30.1805379 8.98496785,30.7915064 C10.0731597,31.6684955 11.3594676,32.1913906 12.6223213,32.7483825 C14.3549714,33.5126321 16.1863713,33.8992589 18.0608378,34.0896934 C18.660688,34.1506362 19.6332924,34.1773876 20.2371267,34.1792121 C20.2896319,34.1897088 20.2265972,34.0112402 20.1635624,33.8642618 C20.3317026,33.8642618 20.5501425,33.8373683 20.6889471,33.8222984 C21.6650613,33.7160987 22.5816031,33.5510886 23.4890146,33.1751482 C23.678451,33.0966712 23.9838068,33.0786632 24.1721523,32.9981486 C24.2108316,32.9816097 24.0967382,32.8835609 24.1353701,32.8669272 C25.7666381,32.164118 27.3804992,31.383519 28.7549088,30.2112463 C29.8428872,29.2832661 30.8016894,28.2467168 31.655481,27.1062186 C32.5727817,25.9669053 32.4965613,25.5042184 32.7303924,24.6440999 C33.1133441,23.2353775 33.6332269,21.9561705 34.0309768,20.5510497 C34.2279546,19.8552778 34.3346252,19.1358113 34.3559925,18.4130748 C34.4384262,15.6236609 34.0742806,12.9080086 32.911647,10.3375102 C32.7580916,9.99798856 32.5570349,9.54224425 32.4151473,9.20369404 C32.3934243,9.1517552 32.3265951,9.26027704 32.2973544,9.21222414 C31.7762858,8.35528077 31.1509893,7.57060631 30.4981122,6.80593019 C29.2673213,5.36439061 27.8558687,4.12148389 26.2455412,3.11410272 C23.2737525,1.21970958 21.0683415,0.598362851 18.2932697,0.274858792 C17.4001347,0.138377185 15.1303135,0.19022124 13.4230859,0.495314499 C13.3863275,0.501877937 13.200899,0.538865401 13.1709231,0.516308024 C13.1510972,0.501380348 13.2722341,0.462378833 13.2962338,0.456052342 C13.8644242,0.306349079 14.3656907,0.227327177 14.9020555,0.121222205 C15.1576333,0.0706576653 15.4171241,0.0397834407 15.6748362,0 L17.9746808,0 C18.032024,0.0175814848 18.0883948,0.0457782057 18.1469,0.0511806026 C19.9808137,0.220597875 21.7471867,0.689492757 23.4295608,1.40905412 C25.189175,2.16166962 26.9068609,3.01394513 28.6272978,3.85449175 C28.9304007,4.00258377 29.2064209,4.27090282 29.4085211,4.54687526 C29.5815229,4.78299318 29.6820276,5.10088159 29.861883,5.32979631 C30.05943,5.58122102 30.3378929,5.74234514 30.5650125,5.96971971 C30.7100067,6.11494467 30.8575622,6.25884272 30.9902483,6.41539376 C33.0324993,8.82481541 34.2130378,11.6244418 34.797402,14.6885012 C34.9084361,15.270728 34.8881123,15.8752041 34.9684591,16.4632834 C34.9669888,17.2210881 35.0014468,17.9573542 34.9999528,18.7151825 C34.9487755,19.1226607 34.8869502,19.6003226 34.826619,20.0064739 C34.5886141,21.6090665 34.1231575,23.0923325 33.5026989,24.588986 C32.6033268,26.7583564 31.3310582,28.662109 29.625467,30.2738477 C27.688274,32.1044073 25.5078113,33.4434435 22.9270138,34.1949691 C22.4838731,34.3240105 22.0561473,34.4989961 21.6135995,34.6306439 C21.6135995,34.6685318 21.6213069,34.7508473 21.5505173,34.746132 C21.3929303,34.7356353 21.2347505,34.6769671 21.0199389,34.7146417 C20.1215629,34.8721169 19.0978525,35.0285968 18.1802435,34.9955427 C16.5185489,34.9356661 14.8835102,34.620313 13.2812458,34.1004745 C13.1624094,34.0619232 12.7190553,33.8436 12.6035389,33.8012812 C12.5731836,33.7901684 12.592796,33.8350225 12.6823443,33.9115091 C12.7814734,33.9961703 12.9538823,34.1058769 12.9187603,34.1004745 C12.7138616,34.0690079 11.7418976,33.5307349 11.2650103,33.2545729 C10.4127364,32.7304456 9.39350817,32.1110418 11.1135656,33.2892383 C11.2760378,33.4148677 11.6582781,33.6861486 11.8207266,33.811778 C11.8122366,33.8277482 11.7398581,33.8538598 11.4214589,33.6438061 C11.2133588,33.5065426 11.1348617,33.4803599 10.918983,33.3558204 C9.60367153,32.4784996 8.2957117,31.6798926 7.22601765,30.5465266 C6.50337062,29.7809264 5.86657231,28.9279875 5.24687259,28.0738875 C4.75729773,27.3991091 4.27647374,26.6983614 3.92586945,25.9467173 C3.24439186,24.4857718 2.68397994,22.9785504 2.52736531,21.3450599 C2.34988138,19.4941703 2.46613288,17.6620942 2.86253105,15.8573856 C3.02910603,15.0989886 3.34129183,14.3588602 3.67951682,13.6546294 C4.01328337,12.9597342 4.22615026,12.181173 4.69148828,11.5657973 C5.22735505,10.8571592 5.38859413,10.2944806 5.74678725,9.66123915 C6.04827753,9.12834482 6.4926751,8.65703307 6.94112796,8.23014894 C7.93137637,7.28745436 9.06235028,6.53597621 10.2871175,5.91958167 C12.0771819,5.01873198 14.0422639,4.49851433 16.0438672,4.39432863 C17.7265021,4.30677663 19.3710506,4.47105215 20.964825,5.03958334 C21.6574724,5.28667192 22.3384046,5.56750178 23.0192419,5.84622281 C24.1034021,6.29002498 24.943439,7.0910488 25.8239338,7.82117801 C27.1067556,8.88490523 27.997282,10.2503848 28.7743789,11.7075392 C29.4064342,12.8927492 29.8265949,14.1536165 29.9568858,15.4935532 C30.1039907,17.006793 29.9727749,18.5209332 29.6412376,20.0064739 C29.212326,21.9282818 28.3680678,23.6243738 27.0721553,25.1086587 C25.468468,26.9454973 23.4814495,27.9513146 21.08295,28.3054086 C20.4171481,28.4036943 19.6735606,28.4143095 19.002494,28.478617 C18.4449042,28.5320723 17.6917595,28.2596541 17.1584539,28.1636668 C16.3180851,28.0124233 15.9763977,28.1479335 14.9282844,27.8959638 C14.6328177,27.8525313 14.1990208,27.8097861 13.927459,27.6833984 C13.751564,27.6015094 14.0929431,28.0377293 15.0267733,28.4268204 C15.8645335,28.9264473 16.8154622,29.0356563 17.7481303,29.1830612 C18.9986521,29.3806515 20.4525074,29.3683539 21.5010475,29.1320464 C22.8875992,28.7505614 24.4952233,28.1715571 25.4484287,27.4466407 C26.2501419,26.7852736 26.9676665,26.0060015 27.6444722,25.2126548 C29.1985949,23.3909097 30.0070433,21.2115638 30.4043189,18.8896942 C30.8309538,16.3961326 30.3707383,14.0106663 29.3502768,11.7045299 C28.7428615,10.006803 27.8874099,9.40426987 26.9914765,8.36788636 C26.0466188,7.27489616 24.9616996,6.35542242 23.719573,5.62053057 C22.4340002,4.85995364 21.0416146,4.39821457 19.5856724,4.13297583 C16.8032489,3.626122 13.90557,3.87835233 11.2795951,4.95186547 C10.6053743,5.2274825 10.1957194,5.58880333 9.54587779,5.92820655 C8.12479686,6.67037268 6.76845819,7.66244706 5.70018705,8.85722979 C4.44089064,10.2656678 3.35734696,11.8703693 2.75080914,13.6813333 C2.50704146,14.4091404 2.42524802,15.195284 2.30968425,15.9609079 C2.0874499,17.4337719 1.87780827,18.8357887 1.67060929,20.3109274 C1.64153456,20.3564212 1.65429329,20.4723121 1.60207261,20.506006 C1.60207261,19.8510602 1.79670257,18.9776253 1.57603341,18.2847442 C1.46744189,18.4872867 1.41581408,18.7194476 1.35538796,19.0616231 C1.26081208,19.5970291 1.27131787,19.8699923 1.29235318,20.2899339 C1.18952444,19.8768874 1.1720464,19.7565419 1.19251254,19.3608164 C1.23980048,18.4474559 1.39949808,17.5668178 1.53403394,16.7850814 C1.61530564,16.3129878 1.74941462,15.7126583 1.72840303,15.2087189 C1.72657697,15.164931 1.7732246,15.2160642 1.77569097,15.1719921 C1.75802321,15.1491503 1.81690785,15.3281403 1.85449631,15.3767145 C1.95431323,14.9935234 2.17133026,14.4080979 2.2957872,14.0329156 C2.20946417,14.0347638 2.20123503,14.0906597 2.08564755,14.3111154 C1.94136478,14.5863296 2.07125247,14.282966 2.0593712,14.2691283 C2.07058845,14.217071 2.24091042,13.8448032 2.25376401,13.8124599 C2.83701359,12.3446666 3.42453189,11.3357216 4.3685121,10.0697125 C4.9986939,9.22459278 5.63874118,8.37878594 6.35356223,7.60645643 C7.73304684,6.11591615 9.44520712,5.098133 11.3261953,4.36281465 C12.7909832,3.79018427 14.3123791,3.48930867 15.8855213,3.36856036 C17.933796,3.21132217 19.9042613,3.52212586 21.8365216,4.15882677 C23.4478689,4.68980183 24.8418671,5.60953622 26.167139,6.64127556 C27.4877864,7.669437 28.4856237,8.89478593 29.3259925,10.3375102 C30.0972793,11.6616425 30.593945,13.1408804 30.8530563,14.6364202 C30.9319328,15.0917617 30.9318854,15.6404841 31.043963,16.0853289 C31.1350054,16.4467445 31.3353744,16.7049933 31.4281953,17.0668828 C31.564083,17.801822 31.6744057,18.4868365 31.6665323,19.2663455 L31.6428883,19.4946679 C31.6586351,21.0064386 30.2607476,23.2361832 29.7909511,23.9118382 C29.5558157,24.2500567 29.1755201,24.5283275 28.987151,24.888203 C28.426739,25.8187895 27.6818947,26.7050196 26.8278896,27.3999147 C25.2164474,28.5732774 23.2928906,29.6204421 21.1845219,29.9912882 C19.3807738,30.2187338 17.2022083,30.1442613 15.3162163,29.4528967 C14.6000909,29.1903828 12.5719978,28.1951807 11.8154619,27.6203941 C10.8168183,26.8616417 10.6200777,25.852128 10.1211591,25.6047077 C10.1130248,25.5960117 11.3065592,27.5332923 11.7209097,27.8014929 C12.2804205,28.1636668 13.3307867,28.9679605 14.1796456,29.4156012 C15.9607457,30.35486 17.9017331,30.7595422 19.9350198,30.5436596 C21.3368441,30.3948093 22.7140283,30.1120839 24.0206127,29.6117461 C25.6675564,28.9810636 27.0708984,27.9550584 28.2661165,26.6438872 C29.216239,25.6016037 30.0419993,24.4821228 30.6322212,23.1973712 C30.7330816,22.9778396 30.8306455,22.7564124 30.9192927,22.5317627 C31.6744057,20.6914883 31.7768313,19.5419151 31.7768313,19.5419151" id="Fill-1"></path>
            </g>
        </g>
    </g>
</svg>