<?xml version="1.0" encoding="utf-8"?>
<!-- Generator: Adobe Illustrator 23.1.1, SVG Export Plug-In . SVG Version: 6.00 Build 0)  -->
<svg version="1.1" id="Ebene_1" xmlns="http://www.w3.org/2000/svg" xmlns:xlink="http://www.w3.org/1999/xlink" x="0px" y="0px"
	 viewBox="0 0 101 35" style="enable-background:new 0 0 101 35;" xml:space="preserve">
<style type="text/css">
	.st0{fill-rule:evenodd;clip-rule:evenodd;fill:#FFFFFF;}
	.st1{fill:#FFFFFF;}
</style>
<title>Group</title>
<desc>Created with Sketch.</desc>
<g id="Artboard" transform="translate(-10.000000, -8.000000)">
	<g id="Group" transform="translate(10.000000, 8.000000)">
		<path id="Fill-1" class="st0" d="M24.5,15c-0.3,0-0.5,0.2-0.5,0.4c0,1,0,2.1,0,3.1c0,0.4,0.4,0.6,0.8,0.3c0.7-0.4,1.3-0.9,1.9-1.4
			c0.4-0.3,0.3-0.7-0.1-1c-0.6-0.4-1.1-0.8-1.7-1.2C24.9,15.1,24.7,15.1,24.5,15 M21,17.2L21,17.2c0-1.4,0-2.9,0-4.3
			c0-1.7-1.1-2.9-2.6-2.9c-1.6,0-3.2,0-4.7,0c-0.9,0-1.7,0.4-2.3,1.3c-0.3,0.5-0.4,1.1-0.4,1.8c0,2.7,0,5.5,0,8.2
			c0,0.6,0.2,1.1,0.7,1.4c0.6,0.3,1.2,0.4,1.8,0c0.5-0.3,0.6-0.8,0.6-1.4c0-2.4,0-4.8,0-7.2c0-0.6,0.3-0.9,0.8-0.9
			c0.7,0,1.5,0,2.2,0c0.5,0,0.8,0.2,0.8,0.8c0,0.2,0,0.3,0,0.5c0,2.3,0,4.6,0,6.9c0,0.2,0,0.3,0,0.5c0.2,0.8,0.9,1.2,1.6,1.1
			c0.9-0.1,1.3-0.7,1.3-1.5C21,20,21,18.6,21,17.2 M31.8,19.5c0,0.1,0.2-1.8,0.2-2.6c-0.1-1.1-0.2-2.2-0.5-3.2
			c-0.5-2.3-1.5-4.3-3-6.1c-0.9-1-1.8-1.9-2.9-2.6c-1.3-0.8-3-1.6-4.5-2.1c-0.4,0-1.5-0.2-2.4-0.4c-0.6-0.1-1.3-0.3-1.9-0.3
			c-1.5,0-3.5,0.4-4.8,0.8C9.7,3.7,8.3,4.5,6.6,6c-1.7,1.4-3.1,3-4.2,4.9C2,11.6,1.6,12.3,1.3,13c-0.6,1.5-1,3.1-1.2,4.8
			c0,0,0,0.1-0.1,0.1c0-0.1,0-0.2,0-0.3c0.1-2.1,0.5-4.2,1.7-6c0.8-1.3,0.8-1.5,1.7-2.8c1.4-1.9,3-3.3,4.2-4.2
			C9.8,3,12.3,2.2,15,1.9c0.7-0.1,1.4-0.1,2-0.2c1.8-0.1,3.3,0.2,4.9,0.8c1.8,0.6,3.8,1.5,5.3,2.7C28.4,6,29.2,7,30,8.1
			c0.5,0.8,1,1.8,1.4,2.7c0.4,1,0.9,2,1.2,3.1c0.2,0.7,0.3,1.5,0.4,2.3c0.1,0.5,0.2,1.1,0.1,1.6c-0.1,1-0.3,1.9-0.5,2.9
			c-0.2,1.3-0.6,2.5-1.1,3.7c-0.5,1.1-1.2,2.2-2,3.1c-0.8,1-1.8,1.9-2.9,2.7c-1.8,1.3-3.9,2.1-6.1,2.4c-1.4,0.2-2.8,0.2-4.2-0.1
			c-1.1-0.2-2.1-0.7-3.2-1c-0.7-0.3-1.5-0.5-2.1-1c-1.4-1.1-2.8-2.2-3.9-3.7c-0.2-0.3-0.6-0.6-0.9-0.9C5.5,25,5.2,24,4.7,23
			c-0.3-0.8-0.4-1.6-0.5-2.4C4,19,4,17.5,4,15.8c0,0,0-0.2,0-0.3c0-0.2-0.2,0.2-0.2,0.3c-0.4,1.3-0.6,2.6-0.6,4.1
			c0.1,2,0.5,3.8,1.3,5.6c0.5,0.9,0.8,1.9,1.6,2.9c0.1,0.2,0.2,0,0.3,0.1c0.1,0.1,0.2,0.1,0.2,0.2c0.1,0.5,1.3,1.5,2,2.1
			c1.1,0.9,2.4,1.4,3.6,2c1.7,0.8,3.6,1.2,5.4,1.3c0.6,0.1,1.6,0.1,2.2,0.1c0.1,0,0-0.2-0.1-0.3c0.2,0,0.4,0,0.5,0
			c1-0.1,1.9-0.3,2.8-0.6c0.2-0.1,0.5-0.1,0.7-0.2c0,0-0.1-0.1,0-0.1c1.6-0.7,3.2-1.5,4.6-2.7c1.1-0.9,2-2,2.9-3.1
			c0.9-1.1,0.8-1.6,1.1-2.5c0.4-1.4,0.9-2.7,1.3-4.1c0.2-0.7,0.3-1.4,0.3-2.1c0.1-2.8-0.3-5.5-1.4-8.1c-0.2-0.3-0.4-0.8-0.5-1.1
			c0-0.1-0.1,0.1-0.1,0c-0.5-0.9-1.1-1.6-1.8-2.4c-1.2-1.4-2.6-2.7-4.3-3.7c-3-1.9-5.2-2.5-8-2.8c-0.9-0.1-3.2-0.1-4.9,0.2
			c0,0-0.2,0-0.3,0l0.1-0.1c0.6-0.1,1.1-0.2,1.6-0.3C15.2,0.1,15.4,0,15.7,0H18c0.1,0,0.1,0,0.2,0.1c1.8,0.2,3.6,0.6,5.3,1.4
			c1.8,0.8,3.5,1.6,5.2,2.4C29,4,29.3,4.3,29.5,4.6c0.2,0.2,0.3,0.6,0.5,0.8c0.2,0.3,0.5,0.4,0.7,0.6c0.1,0.1,0.3,0.3,0.4,0.4
			c2,2.4,3.2,5.2,3.8,8.3c0.1,0.6,0.1,1.2,0.2,1.8c0,0.8,0,1.5,0,2.3c-0.1,0.4-0.1,0.9-0.2,1.3c-0.2,1.6-0.7,3.1-1.3,4.6
			c-0.9,2.2-2.2,4.1-3.9,5.7c-1.9,1.8-4.1,3.2-6.7,3.9c-0.4,0.1-0.9,0.3-1.3,0.4c0,0,0,0.1-0.1,0.1c-0.2,0-0.3-0.1-0.5,0
			c-0.9,0.2-1.9,0.3-2.8,0.3c-1.7-0.1-3.3-0.4-4.9-0.9c-0.1,0-0.6-0.3-0.7-0.3c0,0,0,0,0.1,0.1s0.3,0.2,0.2,0.2
			c-0.2,0-1.2-0.6-1.7-0.8c-0.9-0.5-1.9-1.1-0.2,0c0.2,0.1,0.5,0.4,0.7,0.5c0,0-0.1,0-0.4-0.2c-0.2-0.1-0.3-0.2-0.5-0.3
			c-1.3-0.9-2.6-1.7-3.7-2.8c-0.7-0.8-1.4-1.6-2-2.5c-0.5-0.7-1-1.4-1.3-2.1c-0.7-1.5-1.2-3-1.4-4.6c-0.2-1.9-0.1-3.7,0.3-5.5
			c0.2-0.8,0.5-1.5,0.8-2.2s0.5-1.5,1-2.1c0.5-0.7,0.7-1.3,1.1-1.9c0.3-0.5,0.7-1,1.2-1.4C7.9,7.4,9,6.6,10.2,6
			C12.1,5,14,4.5,16,4.4c1.7-0.1,3.4,0.1,5,0.6c0.7,0.2,1.4,0.5,2.1,0.8c1.1,0.4,1.9,1.2,2.8,2c1.3,1.1,2.2,2.4,3,3.9
			c0.6,1.2,1.1,2.4,1.2,3.8c0.1,1.5,0,3-0.3,4.5c-0.4,1.9-1.3,3.6-2.6,5.1c-1.6,1.8-3.6,2.8-6,3.2c-0.7,0.1-1.4,0.1-2.1,0.2
			c-0.6,0.1-1.3-0.2-1.8-0.3c-0.8-0.2-1.2,0-2.2-0.3c-0.3,0-0.7-0.1-1-0.2c-0.2-0.1,0.2,0.4,1.1,0.7c0.8,0.5,1.8,0.6,2.7,0.8
			c1.3,0.2,2.7,0.2,3.8-0.1c1.4-0.4,3-1,3.9-1.7c0.8-0.7,1.5-1.4,2.2-2.2c1.6-1.8,2.4-4,2.8-6.3c0.4-2.5,0-4.9-1.1-7.2
			C28.7,10,27.9,9.4,27,8.4c-0.9-1.1-2-2-3.3-2.7c-1.3-0.8-2.7-1.2-4.1-1.5c-2.8-0.5-5.7-0.3-8.3,0.8c-0.7,0.3-1.1,0.6-1.7,1
			C8.1,6.7,6.8,7.7,5.7,8.9c-1.3,1.4-2.3,3-2.9,4.8c-0.2,0.7-0.3,1.5-0.4,2.3c-0.2,1.5-0.4,2.9-0.6,4.4c0,0,0,0.2-0.1,0.2
			c0-0.7,0.2-1.5,0-2.2c-0.1,0.2-0.2,0.4-0.2,0.8c-0.1,0.5-0.1,0.8-0.1,1.2c-0.1-0.4-0.1-0.5-0.1-0.9c0-0.9,0.2-1.8,0.3-2.6
			c0.1-0.5,0.2-1.1,0.2-1.6l0,0c0,0,0,0.2,0.1,0.2C2,15,2.2,14.4,2.3,14c-0.1,0-0.1,0.1-0.2,0.3c-0.1,0.3,0,0,0,0
			c0-0.1,0.2-0.4,0.2-0.5c0.6-1.5,1.2-2.5,2.1-3.7c0.6-0.8,1.3-1.7,2-2.5c1.4-1.5,3.1-2.5,5-3.2c1.5-0.6,3-0.9,4.6-1
			c2-0.2,4,0.2,6,0.8c1.6,0.5,3,1.5,4.3,2.5s2.3,2.3,3.2,3.7c0.8,1.3,1.3,2.8,1.5,4.3c0.1,0.5,0.1,1,0.2,1.4s0.3,0.6,0.4,1
			c0.1,0.7,0.2,1.4,0.2,2.2L31.8,19.5c0,1.5-1.4,3.7-1.9,4.4c-0.2,0.3-0.6,0.6-0.8,1c-0.6,0.9-1.3,1.8-2.2,2.5
			c-1.6,1.2-3.5,2.2-5.6,2.6c-1.8,0.2-4,0.2-5.9-0.5c-0.7-0.3-2.7-1.3-3.5-1.8c-1-0.8-1.2-1.8-1.7-2c0,0,1.2,1.9,1.6,2.2
			c0.6,0.4,1.6,1.2,2.5,1.6c1.8,0.9,3.7,1.3,5.8,1.1c1.4-0.1,2.8-0.4,4.1-0.9c1.6-0.6,3.1-1.7,4.2-3c1-1,1.8-2.2,2.4-3.4
			c0.1-0.2,0.2-0.4,0.3-0.7C31.7,20.7,31.8,19.5,31.8,19.5"/>
	</g>
</g>
<g>
	<path class="st1" d="M51.3,12.3c1.5,0,2.6,0.5,3.6,1.4c0.1,0.1,0.1,0.3,0,0.4l-1.2,1.2c-0.1,0.1-0.3,0.1-0.4,0
		c-0.6-0.5-1.3-0.8-2-0.8c-1.7,0-2.9,1.4-2.9,3.1c0,1.7,1.3,3,3,3c0.7,0,1.5-0.3,2-0.7c0.1-0.1,0.3-0.1,0.4,0l1.2,1.2
		c0.1,0.1,0.1,0.3,0,0.4c-1,1-2.3,1.5-3.6,1.5c-3,0-5.4-2.4-5.4-5.4C45.8,14.7,48.3,12.3,51.3,12.3z"/>
	<path class="st1" d="M57.7,12.8c0-0.1,0.1-0.3,0.3-0.3h1.8c0.2,0,0.3,0.1,0.3,0.3v8h3.6c0.2,0,0.3,0.1,0.3,0.3v1.6
		c0,0.2-0.1,0.3-0.3,0.3h-5.6c-0.2,0-0.3-0.1-0.3-0.3V12.8z"/>
	<path class="st1" d="M70.8,12.3c3,0,5.4,2.4,5.4,5.4c0,3-2.4,5.4-5.4,5.4c-3,0-5.4-2.4-5.4-5.4C65.4,14.7,67.8,12.3,70.8,12.3z
		 M70.8,20.7c1.6,0,3-1.3,3-3c0-1.7-1.3-3-3-3c-1.6,0-3,1.4-3,3C67.8,19.4,69.2,20.7,70.8,20.7z"/>
	<path class="st1" d="M78.8,12.8c0-0.1,0.1-0.3,0.3-0.3H81c0.2,0,0.3,0.1,0.3,0.3v6.1c0,1,0.8,1.9,1.8,1.9c1.1,0,1.9-0.8,1.9-1.9
		v-6.1c0-0.1,0.1-0.3,0.3-0.3h1.8c0.2,0,0.3,0.1,0.3,0.3V19c0,2.3-1.9,4.2-4.3,4.2c-2.4,0-4.3-1.9-4.3-4.2V12.8z"/>
	<path class="st1" d="M90.7,12.8c0-0.1,0.1-0.3,0.3-0.3h3.7c2.9,0,5.3,2.4,5.3,5.2c0,2.9-2.4,5.3-5.3,5.3H91c-0.1,0-0.3-0.1-0.3-0.3
		V12.8z M94.5,20.8c1.7,0,2.9-1.3,2.9-3c0-1.7-1.2-3-2.9-3h-1.4v6.1H94.5z"/>
</g>
</svg>
